<svg xmlns="http://www.w3.org/2000/svg" version="1.1" viewBox="0 0 32 40" x="0px" y="0px"><title>laptop</title><path d="M5.864 6.148c-0.752 0-1.357 0.604-1.357 1.355v14.892c0 0.15 0.112 0.261 0.263 0.261h22.46c0.151 0 0.263-0.111 0.263-0.261v-14.892c0-0.75-0.605-1.355-1.357-1.355zM5.864 6.674h20.272c0.461 0 0.831 0.37 0.831 0.831v14.627h-21.936v-15.097h0.197c0.151-0.206 0.359-0.36 0.636-0.36zM2.844 23.109c-0.762 0-1.373 0.611-1.373 1.369 0 0.761 0.613 1.373 1.373 1.373h26.316c0.759 0 1.369-0.613 1.369-1.373s-0.609-1.369-1.369-1.369c-0.151 0-0.263 0.111-0.263 0.261s0.113 0.263 0.263 0.263c0.464 0 0.846 0.386 0.846 0.847 0 0.463-0.383 0.847-0.846 0.847h-26.316c-0.463 0-0.849-0.382-0.849-0.847s0.385-0.847 0.849-0.847c0.15 0 0.263-0.113 0.263-0.263s-0.112-0.261-0.263-0.261z"/><text x="0" y="47" fill="#000000" font-size="5px" font-weight="bold" font-family="'Helvetica Neue', Helvetica, Arial-Unicode, Arial, Sans-serif">Created by shuai tawf</text><text x="0" y="52" fill="#000000" font-size="5px" font-weight="bold" font-family="'Helvetica Neue', Helvetica, Arial-Unicode, Arial, Sans-serif">from the Noun Project</text></svg>